<svg id="Icon_Warning" data-name="Icon/Warning" xmlns="http://www.w3.org/2000/svg" width="16" height="16" viewBox="0 0 16 16">
  <rect id="Rectangle_16528" data-name="Rectangle 16528" width="16" height="16" fill="none"/>
  <path id="Path_19" data-name="Path 19" d="M8.67,1.67a7,7,0,1,0,7,7A7,7,0,0,0,8.67,1.67Zm-.7,4.2a.7.7,0,1,1,1.395,0v2.8a.7.7,0,0,1-1.395,0Zm.706,6.3a.71.71,0,0,1-.706-.706.7.7,0,0,1,.7-.7h.008a.7.7,0,0,1,.7.7A.7.7,0,0,1,8.678,12.174Z" transform="translate(-0.67 -0.67)" fill="#dd2a2a"/>
</svg>
